<?xml version="1.0" encoding="utf-8"?>
<!-- Generator: Adobe Illustrator 21.0.0, SVG Export Plug-In . SVG Version: 6.00 Build 0)  -->
<svg version="1.1" id="Layer_1" xmlns="http://www.w3.org/2000/svg" xmlns:xlink="http://www.w3.org/1999/xlink" x="0px" y="0px"
	 viewBox="0 0 103 64" style="enable-background:new 0 0 103 64;" xml:space="preserve">
<style type="text/css">
	.st0{fill:url(#SVGID_1_);}
	.st1{fill:url(#SVGID_2_);}
	.st2{fill:url(#SVGID_3_);}
	.st3{fill:url(#SVGID_4_);}
	.st4{fill:url(#SVGID_5_);}
	.st5{fill:url(#SVGID_6_);}
	.st6{fill:url(#SVGID_7_);}
	.st7{fill:url(#SVGID_8_);}
	.st8{fill:url(#SVGID_9_);}
	.st9{fill:url(#SVGID_10_);}
	.st10{opacity:0.72;fill:url(#SVGID_11_);}
	.st11{fill:url(#SVGID_12_);}
	.st12{fill:url(#SVGID_13_);}
	.st13{opacity:0.72;fill:url(#SVGID_14_);}
	.st14{fill:url(#SVGID_15_);}
	.st15{fill:url(#SVGID_16_);}
	.st16{fill:url(#SVGID_17_);}
</style>
<g>
	<g>
		<linearGradient id="SVGID_1_" gradientUnits="userSpaceOnUse" x1="1.8691" y1="49.6589" x2="101.4648" y2="49.6589">
			<stop  offset="0.5209" style="stop-color:#FF0082"/>
			<stop  offset="0.6523" style="stop-color:#E800AD"/>
			<stop  offset="0.8083" style="stop-color:#D101D9"/>
			<stop  offset="0.9294" style="stop-color:#C201F5"/>
			<stop  offset="1" style="stop-color:#BD01FF"/>
		</linearGradient>
		<path class="st0" d="M17.7,56l0.8,0.7c-2.4,3.1-5.3,4.7-8.6,4.7c-2.2,0-4.1-0.7-5.6-2.1c-0.7-0.7-1.3-1.6-1.7-2.6
			c-0.4-1.1-0.6-2.3-0.6-3.7s0.3-2.8,0.8-4.3s1.2-2.9,2.2-4.1c0.9-1.3,2-2.4,3.1-3.4c1.2-1,2.5-1.8,3.9-2.4s2.9-0.9,4.5-0.9
			c1.6,0,2.9,0.5,4.1,1.5c1.1,1,1.7,2.4,1.7,4.2c0,1.1-0.2,2.2-0.7,3.4s-1.1,2.2-1.9,3.2c-0.8,1-1.7,1.7-2.7,2.4
			c-1.1,0.6-2.1,0.9-3.1,0.9c-1,0-1.9-0.3-2.5-1c-0.6-0.7-0.9-1.5-0.9-2.4c0-1.5,0.6-3,1.9-4.5c1.3-1.4,2.9-2.5,4.9-3.2l0.4,0.8
			c-1,0.3-2,0.9-2.9,1.7c-0.9,0.8-1.6,1.6-2.1,2.5c-0.5,0.9-0.8,1.7-0.8,2.3c0,1.4,0.8,2.1,2.3,2.1c1.1,0,2.2-0.5,3.2-1.4
			c1.1-0.9,1.9-2.1,2.6-3.3s1-2.5,1-3.7s-0.4-2.2-1.2-2.9s-1.9-1.1-3.2-1.1s-2.7,0.4-4.1,1.2c-1.4,0.8-2.6,1.8-3.7,3.1
			c-1.1,1.3-2,2.7-2.7,4.3c-0.7,1.6-1,3.2-1,4.8c0,2.5,0.8,4.4,2.5,5.6c1,0.7,2.1,1,3.4,1s2.5-0.3,3.7-0.9S16.9,57.1,17.7,56z"/>
		<linearGradient id="SVGID_2_" gradientUnits="userSpaceOnUse" x1="1.8691" y1="49.6589" x2="101.4648" y2="49.6589">
			<stop  offset="0.5209" style="stop-color:#FF0082"/>
			<stop  offset="0.6523" style="stop-color:#E800AD"/>
			<stop  offset="0.8083" style="stop-color:#D101D9"/>
			<stop  offset="0.9294" style="stop-color:#C201F5"/>
			<stop  offset="1" style="stop-color:#BD01FF"/>
		</linearGradient>
		<path class="st1" d="M27.4,59.3c0-0.5,0.2-1.4,0.7-2.6c0.4-1.2,0.7-2.1,0.7-2.6c0-0.5-0.2-0.8-0.5-0.8c-0.4,0-0.8,0.3-1.3,0.8
			c-0.5,0.5-1,1.1-1.5,1.9c-0.8,1.2-1.6,2.6-2.4,4.1l-0.4,0.8h-2.3c0.5-3.8,1-6.6,1.5-8.5c0.5-1.8,0.9-3.4,1.4-4.7
			c0.4-1.3,0.9-2.4,1.4-3.4c1.1-2.3,2.4-4,3.9-5.1l1.2,0.6c-1.1,1.1-2.2,3.1-3.1,6c-0.9,2.8-2,6.8-3.1,11.8c0.1-0.1,0.2-0.3,0.4-0.7
			c0.2-0.3,0.3-0.6,0.5-0.8c0.1-0.2,0.3-0.4,0.5-0.8c0.2-0.3,0.4-0.6,0.5-0.8s0.3-0.5,0.6-0.8c0.2-0.3,0.4-0.6,0.6-0.7
			c0.2-0.2,0.4-0.4,0.7-0.6c0.3-0.2,0.5-0.4,0.7-0.5c0.5-0.3,1.1-0.4,1.7-0.4s1.1,0.2,1.4,0.5s0.5,0.8,0.5,1.4
			c0,0.6-0.3,1.5-0.8,2.9c-0.5,1.3-0.8,2.2-0.8,2.5s0.1,0.5,0.3,0.5c0.4,0,1.1-0.7,2-2l0.7,0.6c-0.7,1.2-1.4,2-2.1,2.6
			c-0.7,0.6-1.3,0.9-1.8,0.9c-0.5,0-0.8-0.1-1.1-0.4C27.5,60.3,27.4,59.8,27.4,59.3z"/>
		<linearGradient id="SVGID_3_" gradientUnits="userSpaceOnUse" x1="1.8691" y1="49.6589" x2="101.4648" y2="49.6589">
			<stop  offset="0.5209" style="stop-color:#FF0082"/>
			<stop  offset="0.6523" style="stop-color:#E800AD"/>
			<stop  offset="0.8083" style="stop-color:#D101D9"/>
			<stop  offset="0.9294" style="stop-color:#C201F5"/>
			<stop  offset="1" style="stop-color:#BD01FF"/>
		</linearGradient>
		<path class="st2" d="M36.4,61c-0.4,0-0.8-0.1-1.1-0.4S35,59.9,35,59.5s0.1-1.1,0.4-2c0.2-0.8,0.5-1.6,0.7-2.3
			c0.2-0.7,0.4-1.1,0.4-1.4s-0.1-0.3-0.2-0.3c-0.4,0-1,0.7-1.8,2.2l-1.1-0.6c1.5-2.6,3-3.9,4.3-3.9c0.9,0,1.3,0.6,1.3,1.7
			c0,0.3-0.1,0.8-0.3,1.6l-1.1,3.3c-0.1,0.3-0.2,0.6-0.2,0.8c0,0.2,0.1,0.4,0.3,0.4c0.4,0,1-0.7,2-2l0.7,0.6c-0.6,1.1-1.2,1.9-2,2.5
			S36.9,61,36.4,61z M40.9,46.5c0,0.4-0.1,0.8-0.4,1.2c-0.3,0.3-0.7,0.5-1.2,0.5c-0.5,0-0.8-0.1-1.1-0.4s-0.4-0.7-0.4-1.1
			c0-0.4,0.2-0.8,0.5-1.2c0.3-0.3,0.7-0.5,1.2-0.5s0.8,0.1,1.1,0.5C40.8,45.7,40.9,46.1,40.9,46.5z"/>
		<linearGradient id="SVGID_4_" gradientUnits="userSpaceOnUse" x1="1.8691" y1="49.6589" x2="101.4648" y2="49.6589">
			<stop  offset="0.5209" style="stop-color:#FF0082"/>
			<stop  offset="0.6523" style="stop-color:#E800AD"/>
			<stop  offset="0.8083" style="stop-color:#D101D9"/>
			<stop  offset="0.9294" style="stop-color:#C201F5"/>
			<stop  offset="1" style="stop-color:#BD01FF"/>
		</linearGradient>
		<path class="st3" d="M43.4,51.5c1.1-3.4,2.2-6.2,3.3-8.5l2,0.2c-0.1,0.3-0.4,1.1-0.9,2.4c-1,2.8-1.6,4.8-1.9,5.9h2.5l-0.3,1h-2.6
			c-1,3-1.5,4.8-1.5,5.5s0.1,1,0.2,1s0.3,0,0.4-0.1c0.3-0.2,0.9-0.9,1.8-2.3l0.6,0.6c-0.7,1.3-1.4,2.2-2.2,2.9S43.6,61,43.2,61
			c-0.5,0-0.9-0.2-1.1-0.5c-0.2-0.3-0.4-0.8-0.4-1.3c0-1.3,0.5-3.5,1.4-6.6h-1.7l0.3-1H43.4z"/>
		<linearGradient id="SVGID_5_" gradientUnits="userSpaceOnUse" x1="1.8691" y1="49.6589" x2="101.4648" y2="49.6589">
			<stop  offset="0.5209" style="stop-color:#FF0082"/>
			<stop  offset="0.6523" style="stop-color:#E800AD"/>
			<stop  offset="0.8083" style="stop-color:#D101D9"/>
			<stop  offset="0.9294" style="stop-color:#C201F5"/>
			<stop  offset="1" style="stop-color:#BD01FF"/>
		</linearGradient>
		<path class="st4" d="M64.7,56l0.8,0.7c-2.4,3.1-5.3,4.7-8.6,4.7c-2.2,0-4.1-0.7-5.6-2.1c-0.7-0.7-1.3-1.6-1.7-2.6
			c-0.4-1.1-0.6-2.3-0.6-3.7s0.3-2.8,0.8-4.3s1.2-2.9,2.2-4.1c0.9-1.3,2-2.4,3.1-3.4c1.2-1,2.5-1.8,3.9-2.4s2.9-0.9,4.5-0.9
			c1.6,0,2.9,0.5,4.1,1.5c1.1,1,1.7,2.4,1.7,4.2c0,1.1-0.2,2.2-0.7,3.4s-1.1,2.2-1.9,3.2c-0.8,1-1.7,1.7-2.7,2.4
			c-1.1,0.6-2.1,0.9-3.1,0.9c-1,0-1.9-0.3-2.5-1c-0.6-0.7-0.9-1.5-0.9-2.4c0-1.5,0.6-3,1.9-4.5c1.3-1.4,2.9-2.5,4.9-3.2l0.4,0.8
			c-1,0.3-2,0.9-2.9,1.7c-0.9,0.8-1.6,1.6-2.1,2.5c-0.5,0.9-0.8,1.7-0.8,2.3c0,1.4,0.8,2.1,2.3,2.1c1.1,0,2.2-0.5,3.2-1.4
			c1.1-0.9,1.9-2.1,2.6-3.3s1-2.5,1-3.7s-0.4-2.2-1.2-2.9s-1.9-1.1-3.2-1.1s-2.7,0.4-4.1,1.2c-1.4,0.8-2.6,1.8-3.7,3.1
			c-1.1,1.3-2,2.7-2.7,4.3c-0.7,1.6-1,3.2-1,4.8c0,2.5,0.8,4.4,2.5,5.6c1,0.7,2.1,1,3.4,1s2.5-0.3,3.7-0.9S63.8,57.1,64.7,56z"/>
		<linearGradient id="SVGID_6_" gradientUnits="userSpaceOnUse" x1="1.8691" y1="49.6589" x2="101.4648" y2="49.6589">
			<stop  offset="0.5209" style="stop-color:#FF0082"/>
			<stop  offset="0.6523" style="stop-color:#E800AD"/>
			<stop  offset="0.8083" style="stop-color:#D101D9"/>
			<stop  offset="0.9294" style="stop-color:#C201F5"/>
			<stop  offset="1" style="stop-color:#BD01FF"/>
		</linearGradient>
		<path class="st5" d="M74.4,59.3c0-0.5,0.2-1.4,0.7-2.6c0.4-1.2,0.7-2.1,0.7-2.6c0-0.5-0.2-0.8-0.5-0.8c-0.4,0-0.8,0.3-1.3,0.8
			c-0.5,0.5-1,1.1-1.5,1.9c-0.8,1.2-1.6,2.6-2.4,4.1l-0.4,0.8h-2.3c0.5-3.8,1-6.6,1.5-8.5c0.5-1.8,0.9-3.4,1.4-4.7
			c0.4-1.3,0.9-2.4,1.4-3.4c1.1-2.3,2.4-4,3.9-5.1l1.2,0.6c-1.1,1.1-2.2,3.1-3.1,6c-0.9,2.8-2,6.8-3.1,11.8c0.1-0.1,0.2-0.3,0.4-0.7
			c0.2-0.3,0.3-0.6,0.5-0.8c0.1-0.2,0.3-0.4,0.5-0.8c0.2-0.3,0.4-0.6,0.5-0.8s0.3-0.5,0.6-0.8c0.2-0.3,0.4-0.6,0.6-0.7
			c0.2-0.2,0.4-0.4,0.7-0.6c0.3-0.2,0.5-0.4,0.7-0.5c0.5-0.3,1.1-0.4,1.7-0.4s1.1,0.2,1.4,0.5s0.5,0.8,0.5,1.4
			c0,0.6-0.3,1.5-0.8,2.9c-0.5,1.3-0.8,2.2-0.8,2.5s0.1,0.5,0.3,0.5c0.4,0,1.1-0.7,2-2l0.7,0.6c-0.7,1.2-1.4,2-2.1,2.6
			c-0.7,0.6-1.3,0.9-1.8,0.9c-0.5,0-0.8-0.1-1.1-0.4C74.5,60.3,74.4,59.8,74.4,59.3z"/>
		<linearGradient id="SVGID_7_" gradientUnits="userSpaceOnUse" x1="1.8691" y1="49.6589" x2="101.4648" y2="49.6589">
			<stop  offset="0.5209" style="stop-color:#FF0082"/>
			<stop  offset="0.6523" style="stop-color:#E800AD"/>
			<stop  offset="0.8083" style="stop-color:#D101D9"/>
			<stop  offset="0.9294" style="stop-color:#C201F5"/>
			<stop  offset="1" style="stop-color:#BD01FF"/>
		</linearGradient>
		<path class="st6" d="M89.3,51.5h2.5l-1.2,4.7c-0.2,0.7-0.3,1.3-0.3,1.8s0.1,0.8,0.3,0.8s0.5-0.2,0.8-0.5s0.6-0.7,0.8-1l0.4-0.5
			l0.7,0.6c-0.3,0.7-0.8,1.3-1.3,1.9c-1,1.1-2,1.6-2.7,1.6c-0.9,0-1.4-0.7-1.4-2.1c0-0.2,0-0.4,0-0.5c-0.2,0.5-0.5,1-0.9,1.4
			c-0.8,0.8-1.8,1.2-2.9,1.2s-1.9-0.4-2.5-1.1c-0.6-0.7-1-1.6-1-2.7c0-1.7,0.5-3.1,1.6-4.3c1.1-1.2,2.4-1.7,3.9-1.7
			c0.7,0,1.3,0.2,1.8,0.6c0.5,0.4,0.8,0.9,0.9,1.6L89.3,51.5z M86.7,52.6c-0.6,0-1.2,0.3-1.7,0.8s-0.9,1.1-1.2,1.9
			c-0.3,0.7-0.4,1.4-0.4,2.1c0,0.7,0.2,1.2,0.5,1.7c0.3,0.4,0.8,0.6,1.4,0.6s1.2-0.3,1.7-0.9c1-1.1,1.4-2.4,1.4-3.9
			S87.8,52.6,86.7,52.6z"/>
		<linearGradient id="SVGID_8_" gradientUnits="userSpaceOnUse" x1="1.8691" y1="49.6589" x2="101.4648" y2="49.6589">
			<stop  offset="0.5209" style="stop-color:#FF0082"/>
			<stop  offset="0.6523" style="stop-color:#E800AD"/>
			<stop  offset="0.8083" style="stop-color:#D101D9"/>
			<stop  offset="0.9294" style="stop-color:#C201F5"/>
			<stop  offset="1" style="stop-color:#BD01FF"/>
		</linearGradient>
		<path class="st7" d="M96.2,51.5c1.1-3.4,2.2-6.2,3.3-8.5l2,0.2c-0.1,0.3-0.4,1.1-0.9,2.4c-1,2.8-1.6,4.8-1.9,5.9h2.5l-0.3,1h-2.6
			c-1,3-1.5,4.8-1.5,5.5s0.1,1,0.2,1s0.3,0,0.4-0.1c0.3-0.2,0.9-0.9,1.8-2.3l0.6,0.6c-0.7,1.3-1.4,2.2-2.2,2.9S96.4,61,95.9,61
			c-0.5,0-0.9-0.2-1.1-0.5c-0.2-0.3-0.4-0.8-0.4-1.3c0-1.3,0.5-3.5,1.4-6.6h-1.7l0.3-1H96.2z"/>
	</g>
</g>
<linearGradient id="SVGID_9_" gradientUnits="userSpaceOnUse" x1="-141.6339" y1="23.1861" x2="-106.5" y2="23.1861" gradientTransform="matrix(-1 0 0 1 -74.5 0)">
	<stop  offset="0.1163" style="stop-color:#FF8FC8"/>
	<stop  offset="0.5209" style="stop-color:#FF0082"/>
	<stop  offset="0.6523" style="stop-color:#E800AD"/>
	<stop  offset="0.8083" style="stop-color:#D101D9"/>
	<stop  offset="0.9294" style="stop-color:#C201F5"/>
	<stop  offset="1" style="stop-color:#BD01FF"/>
</linearGradient>
<path class="st8" d="M32,36.8l9.6-2.8c2.5,1.4,5.3,2.2,8.4,2.2c2.3,0,4.4-0.4,6.4-1.2c0.1,0,0.2-0.1,0.2-0.1
	c6.2-2.6,10.5-8.7,10.5-15.8c0-3.1-0.8-6-2.2-8.4c-0.8-0.2-1.6-0.4-2.4-0.6c-1.1-0.2-2.1-0.4-3.2-0.5c0.2,0.2,0.4,0.4,0.6,0.6
	c2.2,2.4,3.5,5.5,3.5,9c0,5.3-3,9.8-7.5,12c0,0,0,0-0.1,0c-1.8,0.9-3.8,1.4-5.9,1.4c-2.4,0-4.7-0.6-6.6-1.7l-7.6,2.2l2.2-7.9
	c-0.9-1.8-1.5-3.9-1.5-6.1c0-0.8,0.1-1.5,0.2-2.2c0-0.1,0-0.3,0.1-0.4c0.4-2,1.2-3.8,2.3-5.3c-1.8,0.5-3.5,1.1-5,1.7
	c-0.4,1.1-0.8,2.3-0.9,3.6c0,0.1,0,0.2,0,0.4c-0.1,0.7-0.1,1.4-0.1,2.1c0,2.8,0.7,5.4,1.8,7.7L32,36.8z"/>
<linearGradient id="SVGID_10_" gradientUnits="userSpaceOnUse" x1="-139.4015" y1="7.5033" x2="-108.5583" y2="7.5033" gradientTransform="matrix(-1 0 0 1 -74.5 0)">
	<stop  offset="0" style="stop-color:#323FFF"/>
	<stop  offset="0.1244" style="stop-color:#3542FF"/>
	<stop  offset="0.2152" style="stop-color:#3E4BFF"/>
	<stop  offset="0.2953" style="stop-color:#4E59FF"/>
	<stop  offset="0.3692" style="stop-color:#656EFF"/>
	<stop  offset="0.4389" style="stop-color:#828AFF"/>
	<stop  offset="0.5045" style="stop-color:#A5ABFF"/>
	<stop  offset="0.5261" style="stop-color:#B2B7FF"/>
	<stop  offset="0.5654" style="stop-color:#9D95F8"/>
	<stop  offset="0.6101" style="stop-color:#8A77F2"/>
	<stop  offset="0.6594" style="stop-color:#7A5EEE"/>
	<stop  offset="0.7141" style="stop-color:#6E4AEA"/>
	<stop  offset="0.7771" style="stop-color:#653CE7"/>
	<stop  offset="0.8559" style="stop-color:#6034E5"/>
	<stop  offset="1" style="stop-color:#5F32E5"/>
</linearGradient>
<path class="st9" d="M34.1,13c1.5-0.6,3.2-1.2,5-1.7c0,0,0,0,0-0.1c2.4-3.3,6.4-5.5,10.8-5.5c3.7,0,7,1.5,9.4,3.8
	c1,0.1,2.1,0.3,3.2,0.5c0.8,0.2,1.6,0.4,2.4,0.6c0-0.1-0.1-0.1-0.1-0.2C61.8,5.4,56.3,2,50,2c-7.2,0-13.4,4.5-15.9,10.8
	C34.1,12.9,34.1,12.9,34.1,13z"/>
<radialGradient id="SVGID_11_" cx="-139.5259" cy="21.1734" r="32.1725" gradientTransform="matrix(-1 0 0 1 -74.5 0)" gradientUnits="userSpaceOnUse">
	<stop  offset="6.666670e-02" style="stop-color:#A60794"/>
	<stop  offset="0.1653" style="stop-color:#A10A99"/>
	<stop  offset="0.2882" style="stop-color:#9412A9"/>
	<stop  offset="0.424" style="stop-color:#7E1FC2"/>
	<stop  offset="0.5674" style="stop-color:#5F32E5"/>
	<stop  offset="0.781" style="stop-color:#4B38F1;stop-opacity:0.6858"/>
	<stop  offset="0.9957" style="stop-color:#323FFF;stop-opacity:0.37"/>
</radialGradient>
<path class="st10" d="M33.1,17c0.6,0,1.3-0.1,2,0c0.4,0,0.9,0,1.6,0c0-0.1,0-0.3,0.1-0.4c0.4-2,1.2-3.8,2.3-5.3
	c-1.8,0.5-3.5,1.1-5,1.7c-0.4,1.1-0.8,2.3-0.9,3.6C33.1,16.7,33.1,16.8,33.1,17z M55.9,31.2c0.4,1.3,0.6,2.5,0.8,3.7
	c6.2-2.6,10.5-8.7,10.5-15.8c0-3.1-0.8-6-2.2-8.4c-0.8-0.2-1.6-0.4-2.4-0.6c-1.1-0.2-2.1-0.4-3.2-0.5c0.2,0.2,0.4,0.4,0.6,0.6
	c2.2,2.4,3.5,5.5,3.5,9C63.4,24.4,60.3,29,55.9,31.2C55.9,31.2,55.9,31.2,55.9,31.2z"/>
<linearGradient id="SVGID_12_" gradientUnits="userSpaceOnUse" x1="-141.6339" y1="23.1861" x2="-106.5" y2="23.1861" gradientTransform="matrix(-1 0 0 1 -74.5 0)">
	<stop  offset="0.1163" style="stop-color:#FF8FC8"/>
	<stop  offset="0.5209" style="stop-color:#FF0082"/>
	<stop  offset="0.6523" style="stop-color:#E800AD"/>
	<stop  offset="0.8083" style="stop-color:#D101D9"/>
	<stop  offset="0.9294" style="stop-color:#C201F5"/>
	<stop  offset="1" style="stop-color:#BD01FF"/>
</linearGradient>
<path class="st11" d="M32,36.8l9.6-2.8c2.5,1.4,5.3,2.2,8.4,2.2c2.3,0,4.4-0.4,6.4-1.2c0.1,0,0.2-0.1,0.2-0.1
	c6.2-2.6,10.5-8.7,10.5-15.8c0-3.1-0.8-6-2.2-8.4c-0.8-0.2-1.6-0.4-2.4-0.6c-1.1-0.2-2.1-0.4-3.2-0.5c0.2,0.2,0.4,0.4,0.6,0.6
	c2.2,2.4,3.5,5.5,3.5,9c0,5.3-3,9.8-7.5,12c0,0,0,0-0.1,0c-1.8,0.9-3.8,1.4-5.9,1.4c-2.4,0-4.7-0.6-6.6-1.7l-7.6,2.2l2.2-7.9
	c-0.9-1.8-1.5-3.9-1.5-6.1c0-0.8,0.1-1.5,0.2-2.2c0-0.1,0-0.3,0.1-0.4c0.4-2,1.2-3.8,2.3-5.3c-1.8,0.5-3.5,1.1-5,1.7
	c-0.4,1.1-0.8,2.3-0.9,3.6c0,0.1,0,0.2,0,0.4c-0.1,0.7-0.1,1.4-0.1,2.1c0,2.8,0.7,5.4,1.8,7.7L32,36.8z"/>
<linearGradient id="SVGID_13_" gradientUnits="userSpaceOnUse" x1="-139.4015" y1="7.5033" x2="-108.5583" y2="7.5033" gradientTransform="matrix(-1 0 0 1 -74.5 0)">
	<stop  offset="0" style="stop-color:#323FFF"/>
	<stop  offset="0.1244" style="stop-color:#3542FF"/>
	<stop  offset="0.2152" style="stop-color:#3E4BFF"/>
	<stop  offset="0.2953" style="stop-color:#4E59FF"/>
	<stop  offset="0.3692" style="stop-color:#656EFF"/>
	<stop  offset="0.4389" style="stop-color:#828AFF"/>
	<stop  offset="0.5045" style="stop-color:#A5ABFF"/>
	<stop  offset="0.5261" style="stop-color:#B2B7FF"/>
	<stop  offset="0.5654" style="stop-color:#9D95F8"/>
	<stop  offset="0.6101" style="stop-color:#8A77F2"/>
	<stop  offset="0.6594" style="stop-color:#7A5EEE"/>
	<stop  offset="0.7141" style="stop-color:#6E4AEA"/>
	<stop  offset="0.7771" style="stop-color:#653CE7"/>
	<stop  offset="0.8559" style="stop-color:#6034E5"/>
	<stop  offset="1" style="stop-color:#5F32E5"/>
</linearGradient>
<path class="st12" d="M34.1,13c1.5-0.6,3.2-1.2,5-1.7c0,0,0,0,0-0.1c2.4-3.3,6.4-5.5,10.8-5.5c3.7,0,7,1.5,9.4,3.8
	c1,0.1,2.1,0.3,3.2,0.5c0.8,0.2,1.6,0.4,2.4,0.6c0-0.1-0.1-0.1-0.1-0.2C61.8,5.4,56.3,2,50,2c-7.2,0-13.4,4.5-15.9,10.8
	C34.1,12.9,34.1,12.9,34.1,13z"/>
<radialGradient id="SVGID_14_" cx="-139.5259" cy="21.1734" r="32.1725" gradientTransform="matrix(-1 0 0 1 -74.5 0)" gradientUnits="userSpaceOnUse">
	<stop  offset="6.666670e-02" style="stop-color:#A60794"/>
	<stop  offset="0.1653" style="stop-color:#A10A99"/>
	<stop  offset="0.2882" style="stop-color:#9412A9"/>
	<stop  offset="0.424" style="stop-color:#7E1FC2"/>
	<stop  offset="0.5674" style="stop-color:#5F32E5"/>
	<stop  offset="0.781" style="stop-color:#4B38F1;stop-opacity:0.6858"/>
	<stop  offset="0.9957" style="stop-color:#323FFF;stop-opacity:0.37"/>
</radialGradient>
<path class="st13" d="M33.1,17c0.6,0,1.3-0.1,2,0c0.4,0,0.9,0,1.6,0c0-0.1,0-0.3,0.1-0.4c0.4-2,1.2-3.8,2.3-5.3
	c-1.8,0.5-3.5,1.1-5,1.7c-0.4,1.1-0.8,2.3-0.9,3.6C33.1,16.7,33.1,16.8,33.1,17z M55.9,31.2c0.4,1.3,0.6,2.5,0.8,3.7
	c6.2-2.6,10.5-8.7,10.5-15.8c0-3.1-0.8-6-2.2-8.4c-0.8-0.2-1.6-0.4-2.4-0.6c-1.1-0.2-2.1-0.4-3.2-0.5c0.2,0.2,0.4,0.4,0.6,0.6
	c2.2,2.4,3.5,5.5,3.5,9C63.4,24.4,60.3,29,55.9,31.2C55.9,31.2,55.9,31.2,55.9,31.2z"/>
<linearGradient id="SVGID_15_" gradientUnits="userSpaceOnUse" x1="40.3016" y1="19.1628" x2="44.6544" y2="19.1628">
	<stop  offset="0.1163" style="stop-color:#FF8FC8"/>
	<stop  offset="0.5209" style="stop-color:#FF0082"/>
	<stop  offset="0.6523" style="stop-color:#E800AD"/>
	<stop  offset="0.8083" style="stop-color:#D101D9"/>
	<stop  offset="0.9294" style="stop-color:#C201F5"/>
	<stop  offset="1" style="stop-color:#BD01FF"/>
</linearGradient>
<circle class="st14" cx="42.5" cy="19.2" r="2.2"/>
<linearGradient id="SVGID_16_" gradientUnits="userSpaceOnUse" x1="47.7636" y1="19.1628" x2="52.1165" y2="19.1628">
	<stop  offset="0.1163" style="stop-color:#FF8FC8"/>
	<stop  offset="0.5209" style="stop-color:#FF0082"/>
	<stop  offset="0.6523" style="stop-color:#E800AD"/>
	<stop  offset="0.8083" style="stop-color:#D101D9"/>
	<stop  offset="0.9294" style="stop-color:#C201F5"/>
	<stop  offset="1" style="stop-color:#BD01FF"/>
</linearGradient>
<circle class="st15" cx="49.9" cy="19.2" r="2.2"/>
<linearGradient id="SVGID_17_" gradientUnits="userSpaceOnUse" x1="55.2257" y1="19.1628" x2="59.5786" y2="19.1628">
	<stop  offset="0.1163" style="stop-color:#FF8FC8"/>
	<stop  offset="0.5209" style="stop-color:#FF0082"/>
	<stop  offset="0.6523" style="stop-color:#E800AD"/>
	<stop  offset="0.8083" style="stop-color:#D101D9"/>
	<stop  offset="0.9294" style="stop-color:#C201F5"/>
	<stop  offset="1" style="stop-color:#BD01FF"/>
</linearGradient>
<circle class="st16" cx="57.4" cy="19.2" r="2.2"/>
</svg>
