<svg xmlns="http://www.w3.org/2000/svg" version="1.1" xmlns:xlink="http://www.w3.org/1999/xlink" xmlns:svgjs="http://svgjs.com/svgjs" width="512" height="512" x="0" y="0" viewBox="0 0 54 54" style="enable-background:new 0 0 512 512" xml:space="preserve" class=""><g><g xmlns="http://www.w3.org/2000/svg"><path d="m17.79361 21.67631c0-1.04495-.85628-1.90123-1.90141-1.90123-1.04501 0-1.90141.85628-1.90141 1.90123 0 1.04507.8564 1.90147 1.90141 1.90147 1.04513 0 1.90141-.8564 1.90141-1.90147z" fill="#000000" data-original="#000000" class=""></path><path d="m24.58379 23.57778c1.04513 0 1.90141-.8564 1.90141-1.90147 0-1.04495-.85628-1.90123-1.90141-1.90123-1.04501 0-1.90141.85628-1.90141 1.90123 0 1.04507.8564 1.90147 1.90141 1.90147z" fill="#000000" data-original="#000000" class=""></path><path d="m17.0049 27.73118c.40268 1.41464 1.69604 2.44713 3.233 2.44713 1.54701 0 2.83433-1.03274 3.23423-2.44787.10407-.36821-.19126-.73346-.57389-.73346h-5.31969c-.38295 0-.67853.36599-.57365.7342z" fill="#000000" data-original="#000000" class=""></path><path d="m38.95514 24.33825c-4.566.54541-8.32382 4.23269-8.96023 8.76836-.0505.35341-.08083.70707-.09094 1.07072-.57581-.12122-1.17177-.18188-1.78797-.18188h-2.60626v-1.08085c2.79973-1.67953 4.66811-4.63205 4.92965-7.93995 1.69708-.44442 2.94969-2.00012 2.94969-3.79826v-9.62698c0-4.89931-3.98008-8.87946-8.8794-8.87946h-6.49541c-2.29311 0-4.32357 1.43449-5.12159 3.54572-3.20229.36377-5.81861 3.08108-5.81861 6.16215v8.79857c0 1.80825 1.2526 3.37394 2.96991 3.80837.2497 3.12895 1.94068 6.12259 4.90943 7.92983v1.08083h-2.60626c-4.90943 0-8.88951 3.98014-8.88951 8.88957v4.84888c0 1.9799 1.6062 3.59615 3.5861 3.59615h26.36556c1.9799 0 3.59621-1.61625 3.59621-3.59615v-3.33362c1.0304.34355 2.12134.5152 3.22245.5152.2121 0 .43437-.01011.64653-.02022 5.3539-.33331 9.60669-4.80843 9.6673-10.1825.06393-6.2588-5.36232-11.11542-11.58665-10.37448zm5.39435 6.55601c0 .41421-.34349.75763-.75763.75763h-6.37425c-.41415 0-.75763-.34343-.75763-.75763s.34349-.75763.75763-.75763h6.37425c.41415 0 .75763.34342.75763.75763zm-9.27344 7.5763c-.41414 0-.75763-.34343-.75763-.75763 0-.42432.34349-.75763.75763-.75763h6.26308c.42426 0 .75763.33331.75763.75763 0 .4142-.33337.75763-.75763.75763zm10.64726-3.41439h-10.64726c-.41414 0-.75763-.33344-.75763-.75763 0-.41408.34349-.75763.75763-.75763h10.64726c.42426 0 .75763.34355.75763.75763 0 .42419-.33337.75763-.75763.75763zm-15.25365-11.69789v-4.37388c.84854.37624 1.40416 1.28273 1.40416 2.192 0 .95961-.57581 1.79814-1.40416 2.18188zm-20.46605.02023c-.83846-.39386-1.41427-1.24249-1.41427-2.20211s.57581-1.80825 1.41427-2.20211c0 .11203 0 4.55421 0 4.40422zm1.52531.78796c0-.17441 0-7.61134 0-7.15198 0-.24243.19194-.43443.43437-.43443h1.4446c1.32332 0 2.54559-.5152 3.46489-1.37382.31315-.27264.58586-.59597.81824-.95961.23232.35354.49497.67686.79801.95961.92934.85862 2.16179 1.37382 3.49522 1.37382h6.53579c.18683 0 .43437.15805.43437.43443-.03459 10.02296-.01005.11992-.01005 7.33387v.0201c-.09579 4.80884-4.08058 8.50583-8.7178 8.50583-4.80411-.00001-8.69764-3.90757-8.69764-8.70782zm8.70768 10.22307c1.22115 0 2.64905-.27641 3.75788-.72742v.7072l-3.75788 2.58598-3.76793-2.58598v-.69709c1.27503.50939 2.64832.71731 3.76793.71731zm15.25365 13.34435c0 1.14138-.93945 2.08089-2.08095 2.08089h-26.36555c-1.1415 0-2.07084-.93951-2.07084-2.08089v-4.84888c0-3.81849 2.9093-6.97022 6.63685-7.34398l1.40415 5.13176c.43621 1.59204 2.32875 2.1415 3.56588 1.15149l3.65682-2.96985 3.64677 2.96985c.60983.48801 1.41812.60803 2.09107.3941.72729-.23244 1.27277-.80819 1.47481-1.54559l1.41427-5.13176c.37376.04045.74752.10112 1.10106.20198.13133 1.32339.53542 2.60633 1.18195 3.79826l-.84857 2.53554c-.1616.48486-.03027 1.01017.33337 1.37394.35354.36353.88896.48486 1.37382.3232l2.26278-.74752c.39398.28276.79807.52531 1.22233.73741v3.97005z" fill="#000000" data-original="#000000" class=""></path></g></g></svg>