<svg width="22" height="22" viewBox="0 0 22 22" fill="currentColor" xmlns="http://www.w3.org/2000/svg">
<path d="M15.95 13.6125V5.04167C15.95 3.7125 14.8958 2.65833 13.5667 2.65833H5.04166C3.71249 2.65833 2.65833 3.7125 2.65833 5.04167V13.6125C2.65833 14.9417 3.71249 15.9958 5.04166 15.9958H13.6125C14.8958 15.95 15.95 14.8958 15.95 13.6125ZM17.9667 6.875V14.2542C17.9667 16.3167 16.2708 18.0125 14.2083 18.0125H6.82916C6.55416 18.0125 6.41666 18.3333 6.59999 18.5167C7.05832 19.0208 7.69999 19.3417 8.47916 19.3417H14.6208C17.2333 19.3417 19.3417 17.2333 19.3417 14.6208V8.47917C19.3417 7.74583 19.0208 7.05833 18.5167 6.6C18.2875 6.41667 17.9667 6.6 17.9667 6.875Z" fill="currentColor"/>
</svg>
