<svg width="22" height="22" viewBox="0 0 22 22" fill="currentColor" xmlns="http://www.w3.org/2000/svg">
<g clip-path="url(#clip0_2_101)">
<path fill-rule="evenodd" clip-rule="evenodd" d="M21.7708 21.1292L20.4875 16.0875C21.3125 14.575 21.7708 12.8333 21.7708 11C21.7708 5.04166 16.9583 0.229164 11 0.229164C5.04163 0.229164 0.229126 5.04166 0.229126 11C0.229126 16.9583 5.04163 21.7708 11 21.7708C12.8333 21.7708 14.575 21.3125 16.0875 20.4875L21.1291 21.7708C21.4958 21.8625 21.8625 21.4958 21.7708 21.1292ZM20.3958 11C20.3958 12.8333 19.9375 14.2083 19.2041 15.5833C19.1125 15.7667 19.0666 15.9958 19.1125 16.225L20.075 20.075L16.2708 19.1125C16.0416 19.0667 15.8125 19.0667 15.6291 19.2042C14.8041 19.6625 13.2458 20.3958 11.0458 20.3958C5.82079 20.3958 1.60413 16.1792 1.60413 11C1.60413 5.82083 5.82079 1.60416 11 1.60416C16.1791 1.60416 20.3958 5.82083 20.3958 11Z" fill="currentColor"/>
</g>
<defs>
<clipPath id="clip0_2_101">
<rect width="22" height="22" fill="currentColor"/>
</clipPath>
</defs>
</svg>
