<svg width="22" height="22" viewBox="0 0 22 22" fill="currentColor" xmlns="http://www.w3.org/2000/svg">
<g clip-path="url(#clip0_2_104)">
<path d="M11 22C4.95 22 0 17.05 0 11C0 4.95 4.95 0 11 0C17.05 0 22 4.95 22 11C22 17.05 17.05 22 11 22ZM11 1.375C5.68333 1.375 1.375 5.68333 1.375 11C1.375 16.3167 5.68333 20.625 11 20.625C16.3167 20.625 20.625 16.3167 20.625 11C20.625 5.68333 16.3167 1.375 11 1.375Z" fill="currentColor"/>
<path d="M15.9958 11C15.9958 10.3583 15.4917 9.85416 14.85 9.85416C14.2083 9.85416 13.7041 10.3583 13.7041 11C13.7041 11.6417 14.2083 12.1458 14.85 12.1458C15.4917 12.1458 15.9958 11.6417 15.9958 11ZM6.00415 11C6.00415 10.3583 6.50832 9.85416 7.14998 9.85416C7.79165 9.85416 8.29582 10.3583 8.29582 11C8.29582 11.6417 7.79165 12.1458 7.14998 12.1458C6.50832 12.1458 6.00415 11.6417 6.00415 11ZM11 17.0958C8.61665 17.0958 7.33332 15.4917 7.24165 15.4C7.01248 15.125 7.05832 14.6667 7.33332 14.4375C7.60832 14.2083 8.06665 14.2542 8.29582 14.5292C8.34165 14.575 9.25832 15.675 10.9541 15.675C12.65 15.675 13.6125 14.5292 13.6125 14.5292C13.8417 14.2542 14.3 14.2083 14.575 14.4375C14.85 14.6667 14.8958 15.125 14.6666 15.4C14.6666 15.4917 13.3833 17.0958 11 17.0958Z" fill="currentColor"/>
</g>
<defs>
<clipPath id="clip0_2_104">
<rect width="22" height="22" fill="currentColor"/>
</clipPath>
</defs>
</svg>
