<svg width="22" height="22" viewBox="0 0 22 22" fill="currentColor" color="currentColor" xmlns="http://www.w3.org/2000/svg">
<path d="M15.8583 2.79583C18.4708 2.79583 20.625 5.17916 20.625 8.06666C20.625 11.1833 17.9208 13.1083 15.3542 15.4C12.7875 17.6917 11.4583 18.9292 11 19.2042C10.4958 18.8833 8.84583 17.3708 6.64583 15.4C4.03333 13.1083 1.375 11.1833 1.375 8.06666C1.375 5.17916 3.52917 2.79583 6.14167 2.79583C8.06667 2.79583 9.12083 3.7125 9.85417 4.76666C10.725 5.95833 10.8625 6.55416 11 6.55416C11.1375 6.55416 11.275 5.95833 12.1458 4.76666C12.8792 3.7125 13.9333 2.79583 15.8583 2.79583ZM15.8583 1.42083C13.7958 1.42083 12.2375 2.24583 11 3.9875C9.7625 2.29166 8.20417 1.46666 6.14167 1.46666C2.75 1.42083 0 4.4 0 8.06666C0 11.4125 2.475 13.5667 4.85833 15.6292C5.13333 15.8583 5.45417 16.1333 5.72917 16.4083L6.78333 17.325C8.8 19.1125 9.80833 20.0292 10.2667 20.3042C10.4958 20.4417 10.7708 20.5333 11 20.5333C11.275 20.5333 11.5042 20.4417 11.7333 20.3042C12.1917 20.0292 13.0167 19.2958 15.3083 17.1875L16.225 16.3625C16.5458 16.0875 16.8208 15.8125 17.1417 15.5833C19.5708 13.5667 22 11.4583 22 8.06666C22 4.4 19.25 1.42083 15.8583 1.42083Z" color="currentColor" fill="currentColor"/>
</svg>
