<svg width="22" height="22" viewBox="0 0 22 22" fill="none" xmlns="http://www.w3.org/2000/svg">
<path d="M11 12.375C11.7594 12.375 12.375 11.7594 12.375 11C12.375 10.2406 11.7594 9.625 11 9.625C10.2406 9.625 9.625 10.2406 9.625 11C9.625 11.7594 10.2406 12.375 11 12.375Z" fill="currentColor"/>
<path d="M5.95837 12.375C6.71777 12.375 7.33337 11.7594 7.33337 11C7.33337 10.2406 6.71777 9.625 5.95837 9.625C5.19898 9.625 4.58337 10.2406 4.58337 11C4.58337 11.7594 5.19898 12.375 5.95837 12.375Z" fill="currentColor"/>
<path d="M16.0416 12.375C16.801 12.375 17.4166 11.7594 17.4166 11C17.4166 10.2406 16.801 9.625 16.0416 9.625C15.2822 9.625 14.6666 10.2406 14.6666 11C14.6666 11.7594 15.2822 12.375 16.0416 12.375Z" fill="currentColor"/>
</svg>
