<svg width="22" height="22" viewBox="0 0 22 22" fill="none" xmlns="http://www.w3.org/2000/svg">
<g clip-path="url(#clip0_2_109)">
<path d="M16.85 22.06H4.25C3.69021 22.066 3.13485 21.9602 2.6165 21.7488C2.09814 21.5373 1.62723 21.2245 1.23137 20.8286C0.835517 20.4328 0.522691 19.9619 0.311242 19.4435C0.0997921 18.9251 -0.0060241 18.3698 -7.16856e-07 17.81V5.21C-0.0060241 4.65021 0.0997921 4.09485 0.311242 3.57649C0.522691 3.05814 0.835517 2.58723 1.23137 2.19137C1.62723 1.79552 2.09814 1.48269 2.6165 1.27124C3.13485 1.05979 3.69021 0.953975 4.25 0.959998H11.5C11.6989 0.959998 11.8897 1.03902 12.0303 1.17967C12.171 1.32032 12.25 1.51109 12.25 1.71C12.25 1.90891 12.171 2.09968 12.0303 2.24033C11.8897 2.38098 11.6989 2.46 11.5 2.46H4.25C3.88794 2.45666 3.52884 2.52551 3.19368 2.66253C2.85853 2.79955 2.55405 3.00199 2.29802 3.25802C2.04199 3.51405 1.83955 3.81853 1.70253 4.15368C1.56551 4.48884 1.49666 4.84793 1.5 5.21V17.81C1.49666 18.1721 1.56551 18.5312 1.70253 18.8663C1.83955 19.2015 2.04199 19.506 2.29802 19.762C2.55405 20.018 2.85853 20.2204 3.19368 20.3575C3.52884 20.4945 3.88794 20.5633 4.25 20.56H16.85C17.2121 20.5633 17.5712 20.4945 17.9063 20.3575C18.2415 20.2204 18.546 20.018 18.802 19.762C19.058 19.506 19.2605 19.2015 19.3975 18.8663C19.5345 18.5312 19.6033 18.1721 19.6 17.81V10.56C19.6 10.3611 19.679 10.1703 19.8197 10.0297C19.9603 9.88902 20.1511 9.81 20.35 9.81C20.5489 9.81 20.7397 9.88902 20.8803 10.0297C21.021 10.1703 21.1 10.3611 21.1 10.56V17.81C21.106 18.3698 21.0002 18.9251 20.7888 19.4435C20.5773 19.9619 20.2645 20.4328 19.8686 20.8286C19.4728 21.2245 19.0019 21.5373 18.4835 21.7488C17.9652 21.9602 17.4098 22.066 16.85 22.06Z" fill="currentColor"/>
<path d="M8.75002 17.4097H5.40002C5.20111 17.4097 5.01035 17.3307 4.86969 17.19C4.72904 17.0494 4.65002 16.8586 4.65002 16.6597V13.3097C4.6502 13.1108 4.72933 12.9202 4.87002 12.7797L17.05 0.629672C17.4657 0.223492 18.0238 -0.00391388 18.605 -0.00391388C19.1862 -0.00391388 19.7443 0.223492 20.16 0.629672L21.41 1.87967C21.8162 2.29536 22.0436 2.85348 22.0436 3.43467C22.0436 4.01586 21.8162 4.57398 21.41 4.98967L9.26002 17.1897C9.12444 17.3256 8.94191 17.4043 8.75002 17.4097ZM6.15002 15.9097H8.44002L20.37 3.90967C20.4984 3.77486 20.57 3.59583 20.57 3.40967C20.57 3.22351 20.4984 3.04448 20.37 2.90967L19.12 1.65967C18.9852 1.53128 18.8062 1.45967 18.62 1.45967C18.4339 1.45967 18.2548 1.53128 18.12 1.65967L6.12002 13.5897L6.15002 15.9097Z" fill="currentColor"/>
<path d="M19.1 7.01C18.9982 7.0123 18.8971 6.994 18.8025 6.95619C18.708 6.91839 18.6221 6.86186 18.55 6.79L15.27 3.51C15.1375 3.36783 15.0654 3.17978 15.0688 2.98548C15.0723 2.79118 15.151 2.60579 15.2884 2.46838C15.4258 2.33097 15.6112 2.25226 15.8055 2.24883C15.9998 2.2454 16.1878 2.31752 16.33 2.45L19.63 5.75C19.7002 5.8193 19.7559 5.90182 19.7939 5.9928C19.8319 6.08378 19.8514 6.1814 19.8514 6.28C19.8514 6.3786 19.8319 6.47622 19.7939 6.5672C19.7559 6.65818 19.7002 6.74071 19.63 6.81C19.486 6.94293 19.2959 7.01465 19.1 7.01Z" fill="currentColor"/>
</g>
<defs>
<clipPath id="clip0_2_109">
<rect width="22" height="22" fill="currentColor"/>
</clipPath>
</defs>
</svg>
