<svg width="22" height="22" viewBox="0 0 22 22" fill="none" xmlns="http://www.w3.org/2000/svg">
<g clip-path="url(#clip0_2_108)">
<path fill-rule="evenodd" clip-rule="evenodd" d="M21.4042 9.44166L20.4417 8.9375C20.2584 8.84583 20.1209 8.70833 20.075 8.47916C19.8459 7.74583 19.5709 7.0125 19.2042 6.325C19.1125 6.14166 19.0667 5.95833 19.1584 5.775L19.525 4.72083C19.6167 4.49166 19.525 4.21666 19.3417 4.03333L18.0125 2.70416C17.8292 2.52083 17.5542 2.475 17.325 2.52083L16.2709 2.8875C16.0875 2.93333 15.9042 2.93333 15.7209 2.84166C15.0792 2.475 14.3459 2.15416 13.6125 1.97083C13.4292 1.925 13.2459 1.7875 13.1542 1.60416L12.65 0.595831C12.5125 0.366664 12.2834 0.229164 12.0542 0.229164H10.175C9.90002 0.229164 9.67086 0.366664 9.57919 0.595831L9.07502 1.60416C8.98336 1.7875 8.84586 1.925 8.61669 1.97083C7.88336 2.2 7.15002 2.475 6.50836 2.84166C6.32502 2.93333 6.14169 2.97916 5.95836 2.8875L4.90419 2.52083C4.67502 2.42916 4.40002 2.52083 4.21669 2.70416L2.70419 4.03333C2.52086 4.21666 2.47502 4.49166 2.52086 4.72083L2.88752 5.775C2.93336 5.95833 2.93336 6.14166 2.84169 6.325C2.47502 7.0125 2.15419 7.7 1.97086 8.47916C1.92502 8.6625 1.78752 8.84583 1.60419 8.9375L0.641691 9.44166C0.412524 9.57916 0.275024 9.80833 0.275024 10.0375V11.9167C0.275024 12.1917 0.412524 12.4208 0.641691 12.5125L1.60419 13.0167C1.78752 13.1083 1.92502 13.2458 1.97086 13.475C2.20002 14.2083 2.47502 14.9417 2.84169 15.6292C2.93336 15.8125 2.97919 15.9958 2.88752 16.1792L2.52086 17.2333C2.42919 17.4625 2.52086 17.7375 2.70419 17.9208L4.03336 19.25C4.21669 19.4333 4.49169 19.4792 4.72086 19.4333L5.77502 19.0667C5.95836 19.0208 6.14169 19.0208 6.32502 19.1125C6.96669 19.4792 7.70002 19.8 8.43336 19.9833C8.61669 20.0292 8.80002 20.1667 8.89169 20.35L9.39586 21.3583C9.53336 21.5875 9.76252 21.725 9.99169 21.725H11.8709C12.1459 21.725 12.375 21.5875 12.4667 21.3583L12.9709 20.35C13.0625 20.1667 13.2 20.0292 13.4292 19.9833C14.1625 19.7542 14.8959 19.4792 15.5375 19.1125C15.7209 19.0208 15.9042 18.975 16.0875 19.0667L17.1417 19.4333C17.3709 19.525 17.6459 19.4333 17.8292 19.25L19.1584 17.9208C19.3417 17.7375 19.3875 17.4625 19.3417 17.2333L18.975 16.1792C18.9292 15.9958 18.9292 15.8125 19.0209 15.6292C19.3875 14.9417 19.7084 14.2542 19.8917 13.475C19.9375 13.2917 20.075 13.1083 20.2584 13.0167L21.2209 12.5125C21.45 12.375 21.5875 12.1458 21.5875 11.9167V10.0375C21.7709 9.80833 21.6334 9.53333 21.4042 9.44166ZM11 19.0208C6.55419 19.0208 2.97919 15.4458 2.97919 11C2.97919 6.55416 6.55419 2.97916 11 2.97916C15.4459 2.97916 19.0209 6.55416 19.0209 11C19.0209 15.4458 15.4459 19.0208 11 19.0208Z" fill="currentColor"/>
</g>
<defs>
<clipPath id="clip0_2_108">
<rect width="22" height="22" fill="currentColor"/>
</clipPath>
</defs>
</svg>
