<svg width="22" height="22" viewBox="0 0 22 22" fill="none" xmlns="http://www.w3.org/2000/svg">
<g clip-path="url(#clip0_2_106)">
<path fill-rule="evenodd" clip-rule="evenodd" d="M20.625 0.6875H1.375C1.00833 0.6875 0.6875 1.00833 0.6875 1.375V20.625C0.6875 20.9917 1.00833 21.3125 1.375 21.3125H20.625C20.9917 21.3125 21.3125 20.9917 21.3125 20.625V1.375C21.3125 1.00833 20.9917 0.6875 20.625 0.6875ZM2.0625 2.0625H7.10417V7.10417H2.0625V2.0625ZM2.0625 8.47917H7.10417V13.5208H2.0625V8.47917ZM7.10417 19.9375H2.0625V14.8958H7.10417V19.9375ZM13.5208 19.9375H8.47917V14.8958H13.5208V19.9375ZM13.5208 13.5208H8.47917V8.47917H13.5208V13.5208ZM13.5208 7.10417H8.47917V2.0625H13.5208V7.10417ZM19.9375 19.9375H14.8958V14.8958H19.9375V19.9375ZM19.9375 13.5208H14.8958V8.47917H19.9375V13.5208ZM19.9375 7.10417H14.8958V2.0625H19.9375V7.10417Z" fill="currentColor"/>
</g>
<defs>
<clipPath id="clip0_2_106">
<rect width="22" height="22" fill="currentColor"/>
</clipPath>
</defs>
</svg>
