<svg width="22" height="22" viewBox="0 0 22 22" fill="none" xmlns="http://www.w3.org/2000/svg">
<g clip-path="url(#clip0_2_111)">
<path d="M11 0C4.95 0 0 4.88125 0 11C0 14.3 1.44375 17.2563 3.78125 19.25L3.9875 19.4562C5.84375 21.0375 8.31875 22 11 22C13.6812 22 16.1562 21.0375 18.0125 19.4562L18.2188 19.25C20.5562 17.1875 22 14.3 22 11C22 4.88125 17.05 0 11 0ZM11 19.9375C9.075 19.9375 7.35625 19.3188 5.84375 18.2875C6.1875 17.6688 6.4625 17.3937 6.80625 17.05C7.2875 16.7062 7.8375 16.5 8.45625 16.5H13.4062C14.025 16.5 14.575 16.7062 15.0562 17.05C15.4 17.325 15.675 17.6 16.0187 18.2875C14.6437 19.3188 12.925 19.9375 11 19.9375ZM17.6688 16.9125C17.325 16.2938 16.9125 15.8813 16.3625 15.4688C15.5375 14.85 14.5063 14.5063 13.475 14.5063H8.525C7.49375 14.5063 6.4625 14.85 5.6375 15.4688C5.0875 15.8813 4.675 16.2938 4.33125 16.9125C2.8875 15.3313 2.0625 13.2688 2.0625 11C2.0625 6.05 6.05 2.0625 11 2.0625C15.95 2.0625 19.9375 6.05 19.9375 11C19.9375 13.2688 19.1125 15.3313 17.6688 16.9125ZM11 3.91875C8.31875 3.91875 6.1875 6.05 6.1875 8.73125C6.1875 11.4125 8.31875 13.5438 11 13.5438C13.6812 13.5438 15.8125 11.4125 15.8125 8.73125C15.8125 6.05 13.6812 3.91875 11 3.91875ZM11 11.4813C9.4875 11.4813 8.25 10.2437 8.25 8.73125C8.25 7.21875 9.4875 5.98125 11 5.98125C12.5125 5.98125 13.75 7.21875 13.75 8.73125C13.75 10.2437 12.5125 11.4813 11 11.4813Z" fill="currentColor"/>
</g>
<defs>
<clipPath id="clip0_2_111">
<rect width="22" height="22" fill="currentColor"/>
</clipPath>
</defs>
</svg>
