<svg width="22" height="22" viewBox="0 0 22 22" fill="none" xmlns="http://www.w3.org/2000/svg">
<g clip-path="url(#clip0_10_9459)">
<path d="M14.4375 12.925L9.30417 9.94583C9.075 9.80833 8.84583 9.80833 8.61667 9.94583C8.3875 10.0375 8.25 10.2667 8.25 10.5417V16.5C8.25 16.7292 8.3875 16.9583 8.61667 17.0958C8.70833 17.1417 8.84583 17.1875 8.9375 17.1875C9.075 17.1875 9.16667 17.1417 9.30417 17.0958L14.4375 14.1167C14.6667 13.9792 14.7583 13.75 14.7583 13.5208C14.7583 13.2917 14.6208 13.0625 14.4375 12.925ZM20.1208 1.83333C18.975 0.733333 17.6 0 14.5292 0H7.425C4.4 0 3.025 0.733333 1.83333 1.87917C0.733333 3.025 0 4.4 0 7.425V14.5292C0 17.5542 0.733333 18.975 1.87917 20.1208C3.025 21.2208 4.4 21.9542 7.47083 21.9542H14.575C17.6 21.9542 19.0208 21.2208 20.1667 20.075C21.2667 18.9292 22 17.5542 22 14.4833V7.425C22 4.4 21.2667 3.025 20.1208 1.83333ZM14.575 1.375C17.4625 1.375 18.425 2.10833 19.1583 2.84167C19.7083 3.39167 20.2125 4.07917 20.4875 5.5H16.225L13.8875 1.375H14.575ZM7.425 1.375H12.2375L14.575 5.5H9.075L6.7375 1.375H7.425ZM2.84167 2.84167C3.34583 2.3375 3.9875 1.83333 5.27083 1.55833L7.51667 5.5H1.5125C1.7875 4.07917 2.29167 3.39167 2.84167 2.84167ZM20.625 14.575C20.625 17.4625 19.8917 18.425 19.1583 19.1583C18.425 19.8917 17.4167 20.625 14.575 20.625H7.425C4.5375 20.625 3.575 19.8917 2.84167 19.1583C2.10833 18.425 1.375 17.4167 1.375 14.575V6.875H20.625V14.575Z" fill="currentColor"/>
</g>
<defs>
<clipPath id="clip0_10_9459">
<rect width="22" height="22" fill="currentColor"/>
</clipPath>
</defs>
</svg>
