<svg width="22" height="22" viewBox="0 0 22 22" fill="none" xmlns="http://www.w3.org/2000/svg">
<g clip-path="url(#clip0_2_103)">
<path d="M19.9375 22C19.7542 22 19.5708 21.9083 19.4333 21.8167L11 13.2917L2.56667 21.8167C2.38333 22 2.0625 22.0917 1.83333 21.9542C1.55833 21.8625 1.375 21.5875 1.375 21.3125V0.6875C1.375 0.320833 1.69583 0 2.0625 0H19.9375C20.3042 0 20.625 0.320833 20.625 0.6875V21.3125C20.625 21.5875 20.4417 21.8625 20.2125 21.9542C20.1208 22 20.0292 22 19.9375 22ZM11 11.9167C11.3667 11.9167 11.7333 12.0542 12.0083 12.3292L19.25 19.6625V1.375H2.75V19.6625L9.99167 12.3292C10.2667 12.0542 10.6333 11.9167 11 11.9167Z" fill="currentColor"/>
</g>
<defs>
<clipPath id="clip0_2_103">
<rect width="22" height="22" fill="currentColor"/>
</clipPath>
</defs>
</svg>
