<svg width="22" height="22" viewBox="0 0 22 22" fill="currentColor" xmlns="http://www.w3.org/2000/svg">
<path d="M9.16671 16.5C10.7938 16.4997 12.3739 15.955 13.6556 14.9527L17.6853 18.9823L18.9815 17.6862L14.9518 13.6565C15.9546 12.3747 16.4997 10.7941 16.5 9.16666C16.5 5.12325 13.2101 1.83333 9.16671 1.83333C5.12329 1.83333 1.83337 5.12325 1.83337 9.16666C1.83337 13.2101 5.12329 16.5 9.16671 16.5ZM9.16671 3.66667C12.2 3.66667 14.6667 6.13341 14.6667 9.16666C14.6667 12.1999 12.2 14.6667 9.16671 14.6667C6.13346 14.6667 3.66671 12.1999 3.66671 9.16666C3.66671 6.13341 6.13346 3.66667 9.16671 3.66667Z" fill="currentColor"/>
</svg>
