<svg width="22" height="22" viewBox="0 0 22 22" fill="none" xmlns="http://www.w3.org/2000/svg">
<g clip-path="url(#clip0_2_107)">
<path d="M19.0208 2.52084H13.9333C13.7041 2.52084 13.475 2.42917 13.2916 2.24584L11.4583 0.412503C11.1833 0.137503 10.7708 0.137503 10.4958 0.412503L8.66246 2.24584C8.47913 2.42917 8.24996 2.52084 8.02079 2.52084H2.97913C1.46663 2.52084 0.229126 3.75834 0.229126 5.27084V19.0208C0.229126 20.5333 1.46663 21.7708 2.97913 21.7708H19.0208C20.5333 21.7708 21.7708 20.5333 21.7708 19.0208V5.27084C21.7708 3.75834 20.5333 2.52084 19.0208 2.52084ZM5.54579 20.3958C5.27079 20.3958 5.04163 20.1208 5.08746 19.8458C5.40829 18.3792 6.69163 17.2792 8.20413 17.2792H13.7041C15.2625 17.2792 16.5458 18.3792 16.8208 19.8458C16.8666 20.1208 16.6375 20.3958 16.3625 20.3958H5.54579ZM20.3958 19.0208C20.3958 19.8 19.8 20.3958 19.0208 20.3958H18.7458C18.5166 20.3958 18.3333 20.2125 18.2875 19.9833C18.0125 17.6917 16.0875 15.9042 13.75 15.9042H8.24996C5.91246 15.9042 3.94163 17.6917 3.71246 19.9833C3.66663 20.2125 3.48329 20.3958 3.25413 20.3958H2.97913C2.19996 20.3958 1.60413 19.8 1.60413 19.0208V5.27084C1.60413 4.49167 2.19996 3.89584 2.97913 3.89584H8.06663C8.66246 3.89584 9.25829 3.66667 9.67079 3.20834L11 1.87917L12.3291 3.20834C12.7416 3.62084 13.3375 3.89584 13.9333 3.89584H19.0208C19.8 3.89584 20.3958 4.49167 20.3958 5.27084V19.0208ZM11 5.72917C8.57079 5.72917 6.59996 7.7 6.59996 10.1292C6.59996 12.5583 8.57079 14.5292 11 14.5292C13.4291 14.5292 15.4 12.5583 15.4 10.1292C15.4 7.7 13.4291 5.72917 11 5.72917ZM11 13.1083C9.34996 13.1083 7.97496 11.7792 7.97496 10.0833C7.97496 8.43334 9.30413 7.05834 11 7.05834C12.6958 7.05834 14.025 8.3875 14.025 10.0833C14.025 11.7333 12.65 13.1083 11 13.1083Z" fill="currentColor"/>
</g>
<defs>
<clipPath id="clip0_2_107">
<rect width="22" height="22" fill="currentColor"/>
</clipPath>
</defs>
</svg>
