<svg width="22" height="22" viewBox="0 0 22 22" fill="none" xmlns="http://www.w3.org/2000/svg">
<g clip-path="url(#clip0_2_105)">
<path d="M11 12.2375C7.60833 12.2375 4.85833 9.4875 4.85833 6.09583C4.85833 2.70417 7.60833 0 11 0C14.3917 0 17.1417 2.75 17.1417 6.14167C17.1417 9.53333 14.3917 12.2375 11 12.2375ZM20.625 22H1.375C1.00833 22 0.6875 21.6792 0.6875 21.3125V19.9375C0.6875 16.5458 3.4375 13.7958 6.82917 13.7958H15.2167C18.6083 13.7958 21.3583 16.5458 21.3583 19.9375V21.3125C21.3125 21.6792 20.9917 22 20.625 22Z" fill="currentColor"/>
</g>
<defs>
<clipPath id="clip0_2_105">
<rect width="22" height="22" fill="currentColor"/>
</clipPath>
</defs>
</svg>
