<svg width="22" height="22" viewBox="0 0 22 22" fill="none" xmlns="http://www.w3.org/2000/svg">
<g clip-path="url(#clip0_10_9467)">
<path d="M11 0C4.95 0 0 4.95 0 11C0 17.05 4.95 22 11 22C17.05 22 22 17.05 22 11C22 4.95 17.05 0 11 0ZM11 20.625C5.68333 20.625 1.375 16.3167 1.375 11C1.375 5.68333 5.68333 1.375 11 1.375C16.3167 1.375 20.625 5.68333 20.625 11C20.625 16.3167 16.3167 20.625 11 20.625ZM15.5833 9.80833L9.35 6.23333C8.89167 5.95833 8.43333 5.95833 7.975 6.23333C7.60833 6.50833 7.33333 6.875 7.33333 7.425V14.575C7.33333 15.0333 7.60833 15.4917 8.06667 15.7667C8.25 15.8583 8.525 15.95 8.8 15.95C9.075 15.95 9.25833 15.8583 9.53333 15.7667L15.7667 12.1917C16.225 11.9167 16.5 11.4583 16.5 11C16.5 10.5417 16.0417 10.0833 15.5833 9.80833ZM8.70833 14.575V7.425L14.9417 11L8.70833 14.575Z" fill="currentColor"/>
</g>
<defs>
<clipPath id="clip0_10_9467">
<rect width="22" height="22" fill="currentColor"/>
</clipPath>
</defs>
</svg>
