<svg xmlns="http://www.w3.org/2000/svg" version="1.1" xmlns:xlink="http://www.w3.org/1999/xlink" xmlns:svgjs="http://svgjs.dev/svgjs" width="1500" height="556" viewBox="0 0 1500 556"><g transform="matrix(1,0,0,1,-0.9090909090909918,-0.7531831472915087)"><svg viewBox="0 0 396 147" data-background-color="#ffffff" preserveAspectRatio="xMidYMid meet" height="556" width="1500" xmlns="http://www.w3.org/2000/svg" xmlns:xlink="http://www.w3.org/1999/xlink"><g id="tight-bounds" transform="matrix(1,0,0,1,0.2400000000000091,0.19913295440980505)"><svg viewBox="0 0 395.52 146.6017340911804" height="146.6017340911804" width="395.52"><g><svg viewBox="0 0 656.3091497843556 243.26471343622265" height="146.6017340911804" width="395.52"><g transform="matrix(1,0,0,1,258.81154978435563,68.10728729631492)"><svg viewBox="0 0 397.4975999999999 107.0501388435928" height="107.0501388435928" width="397.4975999999999"><g id="textblocktransform"><svg viewBox="0 0 397.4975999999999 107.0501388435928" height="107.0501388435928" width="397.4975999999999" id="textblock"><g><rect width="397.4975999999999" height="5.026368600023873" x="0" y="61.65754287611755" fill="#3581c4" opacity="1" stroke-width="0" stroke="transparent" fill-opacity="1" class="rect-qz-0" data-fill-palette-color="primary" rx="1%" id="qz-0" data-palette-color="#3581c4"></rect></g><g transform="matrix(1,0,0,1,0.9887999999999693,0)"><svg viewBox="0 0 395.52 55.736428033157495" height="55.736428033157495" width="395.52"><g transform="matrix(1,0,0,1,0,0)"><svg width="395.52" viewBox="5.7 -37.1 265.38 37.4" height="55.736428033157495" data-palette-color="#3581c4"><path d="M27.75-18.05Q31.2-17.3 33.08-15.08 34.95-12.85 34.95-9.35L34.95-9.35Q34.95-4.85 31.63-2.43 28.3 0 21.8 0L21.8 0 5.7 0 5.7-35 20.8-35Q26.65-35 29.88-32.65 33.1-30.3 33.1-26L33.1-26Q33.1-23.1 31.68-21.08 30.25-19.05 27.75-18.05L27.75-18.05ZM20.55-31.95L9.4-31.95 9.4-19.25 20.55-19.25Q24.8-19.25 27.1-20.88 29.4-22.5 29.4-25.6L29.4-25.6Q29.4-28.7 27.1-30.33 24.8-31.95 20.55-31.95L20.55-31.95ZM21.75-3.05Q26.45-3.05 28.85-4.65 31.25-6.25 31.25-9.65L31.25-9.65Q31.25-16.2 21.75-16.2L21.75-16.2 9.4-16.2 9.4-3.05 21.75-3.05ZM53.9-2.9Q56.35-2.9 58.42-3.78 60.5-4.65 61.95-6.35L61.95-6.35 63.95-4.05Q62.2-1.95 59.6-0.85 57 0.25 53.85 0.25L53.85 0.25Q49.8 0.25 46.65-1.48 43.5-3.2 41.75-6.25 40-9.3 40-13.15L40-13.15Q40-17 41.67-20.05 43.35-23.1 46.3-24.8 49.25-26.5 53-26.5L53-26.5Q56.5-26.5 59.32-24.9 62.15-23.3 63.82-20.45 65.5-17.6 65.6-13.95L65.6-13.95 44-9.75Q45-6.55 47.62-4.73 50.25-2.9 53.9-2.9L53.9-2.9ZM53-23.45Q50.25-23.45 48.07-22.18 45.9-20.9 44.67-18.63 43.45-16.35 43.45-13.4L43.45-13.4Q43.45-12.65 43.5-12.3L43.5-12.3 62.05-15.9Q61.45-19.2 59-21.33 56.55-23.45 53-23.45L53-23.45ZM93.2 0L82.6-13.2 76.4-7.5 76.4 0 72.85 0 72.85-37.1 76.4-37.1 76.4-11.95 92.1-26.3 96.5-26.3 85.25-15.55 97.55 0 93.2 0ZM122.29-26.3L125.84-26.3 125.84 0 122.44 0 122.44-5.2Q120.84-2.55 118.22-1.15 115.59 0.25 112.29 0.25L112.29 0.25Q108.59 0.25 105.59-1.45 102.59-3.15 100.89-6.2 99.19-9.25 99.19-13.15L99.19-13.15Q99.19-17.05 100.89-20.1 102.59-23.15 105.59-24.83 108.59-26.5 112.29-26.5L112.29-26.5Q115.49-26.5 118.07-25.18 120.64-23.85 122.29-21.3L122.29-21.3 122.29-26.3ZM112.59-2.9Q115.34-2.9 117.57-4.17 119.79-5.45 121.07-7.8 122.34-10.15 122.34-13.15L122.34-13.15Q122.34-16.15 121.07-18.5 119.79-20.85 117.57-22.13 115.34-23.4 112.59-23.4L112.59-23.4Q109.79-23.4 107.57-22.13 105.34-20.85 104.07-18.5 102.79-16.15 102.79-13.15L102.79-13.15Q102.79-10.15 104.07-7.8 105.34-5.45 107.57-4.17 109.79-2.9 112.59-2.9L112.59-2.9ZM161.14-6.7L161.14-17.5 164.69-17.5 164.69 0 161.44 0 161.44-2.95Q159.44-1.35 156.77-0.53 154.09 0.3 151.04 0.3L151.04 0.3Q146.34 0.3 142.32-1.8 138.29-3.9 135.84-7.9 133.39-11.9 133.39-17.4L133.39-17.4Q133.39-22.5 135.79-26.58 138.19-30.65 142.39-32.98 146.59-35.3 151.89-35.3L151.89-35.3Q155.89-35.3 159.24-34.02 162.59-32.75 164.89-30.25L164.89-30.25 162.59-27.9Q158.44-32 152.04-32L152.04-32Q147.79-32 144.37-30.13 140.94-28.25 138.99-24.9 137.04-21.55 137.04-17.4L137.04-17.4Q137.04-12.95 139.02-9.68 140.99-6.4 144.27-4.67 147.54-2.95 151.29-2.95L151.29-2.95Q154.04-2.95 156.62-3.88 159.19-4.8 161.14-6.7L161.14-6.7ZM177.79-21.15Q179.04-23.8 181.51-25.15 183.99-26.5 187.64-26.5L187.64-26.5 187.64-23.05 186.79-23.1Q182.64-23.1 180.29-20.55 177.94-18 177.94-13.4L177.94-13.4 177.94 0 174.39 0 174.39-26.3 177.79-26.3 177.79-21.15ZM214.24-26.3L217.79-26.3 217.79 0 214.39 0 214.39-5.2Q212.79-2.55 210.16-1.15 207.54 0.25 204.24 0.25L204.24 0.25Q200.54 0.25 197.54-1.45 194.54-3.15 192.84-6.2 191.14-9.25 191.14-13.15L191.14-13.15Q191.14-17.05 192.84-20.1 194.54-23.15 197.54-24.83 200.54-26.5 204.24-26.5L204.24-26.5Q207.44-26.5 210.01-25.18 212.59-23.85 214.24-21.3L214.24-21.3 214.24-26.3ZM204.54-2.9Q207.29-2.9 209.51-4.17 211.74-5.45 213.01-7.8 214.29-10.15 214.29-13.15L214.29-13.15Q214.29-16.15 213.01-18.5 211.74-20.85 209.51-22.13 207.29-23.4 204.54-23.4L204.54-23.4Q201.74-23.4 199.51-22.13 197.29-20.85 196.01-18.5 194.74-16.15 194.74-13.15L194.74-13.15Q194.74-10.15 196.01-7.8 197.29-5.45 199.51-4.17 201.74-2.9 204.54-2.9L204.54-2.9ZM260.48-26.5Q265.43-26.5 268.26-23.65 271.08-20.8 271.08-15.25L271.08-15.25 271.08 0 267.53 0 267.53-14.9Q267.53-19 265.56-21.15 263.58-23.3 259.98-23.3L259.98-23.3Q255.88-23.3 253.53-20.78 251.18-18.25 251.18-13.8L251.18-13.8 251.18 0 247.63 0 247.63-14.9Q247.63-19 245.66-21.15 243.68-23.3 240.03-23.3L240.03-23.3Q235.98-23.3 233.61-20.78 231.23-18.25 231.23-13.8L231.23-13.8 231.23 0 227.68 0 227.68-26.3 231.08-26.3 231.08-21.5Q232.48-23.9 234.98-25.2 237.48-26.5 240.73-26.5L240.73-26.5Q244.03-26.5 246.46-25.1 248.88-23.7 250.08-20.95L250.08-20.95Q251.53-23.55 254.26-25.03 256.98-26.5 260.48-26.5L260.48-26.5Z" opacity="1" transform="matrix(1,0,0,1,0,0)" fill="#3581c4" class="wordmark-text-0" data-fill-palette-color="primary" id="text-0"></path></svg></g></svg></g><g transform="matrix(1,0,0,1,0,72.6050263191015)"><svg viewBox="0 0 179.5818727519316 34.44511252449133" height="34.44511252449133" width="179.5818727519316"><g transform="matrix(1,0,0,1,0,0)"><svg width="179.5818727519316" viewBox="4.35 -36.83 194.06 37.23" height="34.44511252449133" data-palette-color="#d17b30"><path d="M17.03 0L4.35 0 4.35-35.83 15.78-35.83Q19.07-35.83 21.46-35.18 23.85-34.52 25.39-33.33 26.93-32.13 27.66-30.39 28.4-28.65 28.4-26.48L28.4-26.48Q28.4-25.15 27.99-23.93 27.58-22.7 26.74-21.65 25.9-20.6 24.64-19.78 23.38-18.95 21.68-18.43L21.68-18.43Q25.6-17.65 27.6-15.6 29.6-13.55 29.6-10.2L29.6-10.2Q29.6-7.93 28.76-6.05 27.93-4.17 26.31-2.83 24.7-1.48 22.36-0.74 20.03 0 17.03 0L17.03 0ZM16.93-16.32L9.2-16.32 9.2-3.85 16.95-3.85Q19.03-3.85 20.51-4.33 22-4.8 22.96-5.66 23.93-6.53 24.38-7.71 24.83-8.9 24.83-10.33L24.83-10.33Q24.83-13.1 22.86-14.71 20.9-16.32 16.93-16.32L16.93-16.32ZM9.2-32L9.2-19.78 15.6-19.78Q17.65-19.78 19.15-20.23 20.65-20.68 21.64-21.48 22.63-22.28 23.1-23.41 23.58-24.55 23.58-25.9L23.58-25.9Q23.58-29.05 21.68-30.53 19.78-32 15.78-32L15.78-32 9.2-32ZM46.02-25.73L46.02-25.73Q48.3-25.73 50.22-24.96 52.15-24.2 53.55-22.76 54.95-21.33 55.74-19.21 56.52-17.1 56.52-14.4L56.52-14.4Q56.52-13.35 56.3-13 56.07-12.65 55.45-12.65L55.45-12.65 38.6-12.65Q38.65-10.25 39.25-8.47 39.85-6.7 40.9-5.51 41.95-4.33 43.4-3.74 44.85-3.15 46.65-3.15L46.65-3.15Q48.32-3.15 49.54-3.54 50.75-3.93 51.62-4.38 52.5-4.83 53.09-5.21 53.67-5.6 54.1-5.6L54.1-5.6Q54.65-5.6 54.95-5.18L54.95-5.18 56.2-3.55Q55.37-2.55 54.22-1.81 53.07-1.07 51.76-0.6 50.45-0.13 49.05 0.11 47.65 0.35 46.27 0.35L46.27 0.35Q43.65 0.35 41.44-0.54 39.22-1.43 37.61-3.14 36-4.85 35.1-7.38 34.2-9.9 34.2-13.18L34.2-13.18Q34.2-15.83 35.01-18.13 35.82-20.43 37.35-22.11 38.87-23.8 41.07-24.76 43.27-25.73 46.02-25.73ZM46.12-22.45L46.12-22.45Q42.9-22.45 41.05-20.59 39.2-18.73 38.75-15.43L38.75-15.43 52.52-15.43Q52.52-16.98 52.1-18.26 51.67-19.55 50.85-20.49 50.02-21.43 48.84-21.94 47.65-22.45 46.12-22.45ZM62.35-36.83L66.82-36.83 66.82-15.15 67.97-15.15Q68.47-15.15 68.8-15.29 69.12-15.43 69.52-15.85L69.52-15.85 77.52-24.43Q77.9-24.83 78.27-25.08 78.65-25.33 79.27-25.33L79.27-25.33 83.32-25.33 74-15.4Q73.65-14.98 73.31-14.65 72.97-14.33 72.55-14.08L72.55-14.08Q73-13.78 73.36-13.39 73.72-13 74.05-12.5L74.05-12.5 83.95 0 79.95 0Q79.4 0 79.01-0.21 78.62-0.43 78.27-0.88L78.27-0.88 69.95-11.25Q69.57-11.78 69.2-11.94 68.82-12.1 68.07-12.1L68.07-12.1 66.82-12.1 66.82 0 62.35 0 62.35-36.83ZM106.99-16.2L106.99 0 105.02 0Q104.37 0 103.97-0.2 103.57-0.4 103.44-1.05L103.44-1.05 102.94-3.4Q101.94-2.5 100.99-1.79 100.04-1.07 98.99-0.59 97.94-0.1 96.76 0.15 95.57 0.4 94.12 0.4L94.12 0.4Q92.64 0.4 91.36-0.01 90.07-0.43 89.12-1.25 88.17-2.08 87.61-3.34 87.04-4.6 87.04-6.33L87.04-6.33Q87.04-7.83 87.87-9.21 88.69-10.6 90.53-11.68 92.37-12.75 95.34-13.44 98.32-14.13 102.62-14.23L102.62-14.23 102.62-16.2Q102.62-19.15 101.36-20.66 100.09-22.18 97.62-22.18L97.62-22.18Q95.99-22.18 94.88-21.76 93.77-21.35 92.96-20.84 92.14-20.33 91.56-19.91 90.97-19.5 90.39-19.5L90.39-19.5Q89.94-19.5 89.61-19.74 89.27-19.98 89.07-20.33L89.07-20.33 88.27-21.75Q90.37-23.78 92.79-24.78 95.22-25.78 98.17-25.78L98.17-25.78Q100.29-25.78 101.94-25.08 103.59-24.38 104.72-23.13 105.84-21.88 106.42-20.1 106.99-18.32 106.99-16.2L106.99-16.2ZM95.44-2.73L95.44-2.73Q96.62-2.73 97.59-2.96 98.57-3.2 99.43-3.64 100.29-4.08 101.08-4.7 101.87-5.33 102.62-6.13L102.62-6.13 102.62-11.4Q99.54-11.3 97.39-10.91 95.24-10.53 93.89-9.9 92.54-9.28 91.93-8.43 91.32-7.58 91.32-6.53L91.32-6.53Q91.32-5.53 91.64-4.8 91.97-4.08 92.52-3.61 93.07-3.15 93.82-2.94 94.57-2.73 95.44-2.73ZM145.49-17.9L145.49-17.9Q145.49-13.88 144.22-10.58 142.94-7.28 140.62-4.93 138.29-2.58 135.04-1.29 131.79 0 127.84 0L127.84 0 114.44 0 114.44-35.83 127.84-35.83Q131.79-35.83 135.04-34.54 138.29-33.25 140.62-30.89 142.94-28.53 144.22-25.23 145.49-21.93 145.49-17.9ZM140.52-17.9L140.52-17.9Q140.52-21.2 139.62-23.8 138.72-26.4 137.06-28.2 135.42-30 133.06-30.95 130.72-31.9 127.84-31.9L127.84-31.9 119.31-31.9 119.31-3.93 127.84-3.93Q130.72-3.93 133.06-4.88 135.42-5.83 137.06-7.61 138.72-9.4 139.62-12 140.52-14.6 140.52-17.9ZM161.41-25.73L161.41-25.73Q163.69-25.73 165.61-24.96 167.54-24.2 168.94-22.76 170.34-21.33 171.13-19.21 171.91-17.1 171.91-14.4L171.91-14.4Q171.91-13.35 171.69-13 171.46-12.65 170.84-12.65L170.84-12.65 153.99-12.65Q154.04-10.25 154.64-8.47 155.24-6.7 156.29-5.51 157.34-4.33 158.79-3.74 160.24-3.15 162.04-3.15L162.04-3.15Q163.71-3.15 164.93-3.54 166.14-3.93 167.01-4.38 167.89-4.83 168.48-5.21 169.06-5.6 169.49-5.6L169.49-5.6Q170.04-5.6 170.34-5.18L170.34-5.18 171.59-3.55Q170.76-2.55 169.61-1.81 168.46-1.07 167.15-0.6 165.84-0.13 164.44 0.11 163.04 0.35 161.66 0.35L161.66 0.35Q159.04 0.35 156.83-0.54 154.61-1.43 153-3.14 151.39-4.85 150.49-7.38 149.59-9.9 149.59-13.18L149.59-13.18Q149.59-15.83 150.4-18.13 151.21-20.43 152.74-22.11 154.26-23.8 156.46-24.76 158.66-25.73 161.41-25.73ZM161.51-22.45L161.51-22.45Q158.29-22.45 156.44-20.59 154.59-18.73 154.14-15.43L154.14-15.43 167.91-15.43Q167.91-16.98 167.49-18.26 167.06-19.55 166.24-20.49 165.41-21.43 164.23-21.94 163.04-22.45 161.51-22.45ZM184.06 0L173.73-25.33 177.38-25.33Q177.91-25.33 178.26-25.05 178.61-24.78 178.76-24.4L178.76-24.4 185.19-8.1Q185.53-7.2 185.73-6.3 185.94-5.4 186.11-4.53L186.11-4.53Q186.31-5.4 186.53-6.3 186.76-7.2 187.11-8.1L187.11-8.1 193.61-24.4Q193.76-24.8 194.1-25.06 194.44-25.33 194.94-25.33L194.94-25.33 198.41-25.33 188.09 0 184.06 0Z" opacity="1" transform="matrix(1,0,0,1,0,0)" fill="#d17b30" class="slogan-text-1" data-fill-palette-color="secondary" id="text-1"></path></svg></g></svg></g></svg></g></svg></g><g><svg viewBox="0 0 245.65351679999995 243.26471343622265" height="243.26471343622265" width="245.65351679999995"><g><svg xmlns="http://www.w3.org/2000/svg" xmlns:xlink="http://www.w3.org/1999/xlink" version="1.1" x="0" y="0" viewBox="4.083999999999997 4.531 91.832 90.93900000000001" enable-background="new 0 0 100 100" xml:space="preserve" height="243.26471343622265" width="245.65351679999995" class="icon-icon-0" data-fill-palette-color="accent" id="icon-0"><g fill="#703f13" data-fill-palette-color="accent"><path fill="none" d="M27.751 31.829v37.153c0 1.682 1.367 3.047 3.047 3.047h37.153c1.682 0 3.048-1.365 3.048-3.047V31.829c0-1.68-1.366-3.047-3.048-3.047H30.798C29.118 28.782 27.751 30.149 27.751 31.829zM40.021 45.799c0-2.358 1.912-4.271 4.27-4.271h10.168c2.357 0 4.27 1.912 4.27 4.271v9.215c0 2.358-1.912 4.271-4.27 4.271H44.291c-2.358 0-4.27-1.912-4.27-4.271V45.799z"></path><path d="M26.684 31.829v37.153c0 2.27 1.846 4.115 4.115 4.115h37.153c2.27 0 4.115-1.846 4.115-4.115V31.829c0-2.269-1.846-4.114-4.115-4.114H30.798C28.529 27.715 26.684 29.561 26.684 31.829zM70.999 31.829v37.153c0 1.682-1.366 3.047-3.048 3.047H30.798c-1.681 0-3.047-1.365-3.047-3.047V31.829c0-1.68 1.367-3.047 3.047-3.047h37.153C69.633 28.782 70.999 30.149 70.999 31.829z" fill="#703f13" data-fill-palette-color="accent"></path><path d="M44.291 59.284h10.168c2.357 0 4.27-1.912 4.27-4.271v-9.215c0-2.358-1.912-4.271-4.27-4.271H44.291c-2.358 0-4.27 1.912-4.27 4.271v9.215C40.021 57.372 41.933 59.284 44.291 59.284z" fill="#703f13" data-fill-palette-color="accent"></path><circle cx="35.146" cy="22.323" r="3.0" fill="#703f13" data-fill-palette-color="accent"></circle><path d="M53.896 25.323c1.657 0 3-1.344 3-3 0-1.486-1.082-2.71-2.5-2.95V8.51h17.446c0.244 1.682 1.679 2.979 3.429 2.979 1.921 0 3.479-1.558 3.479-3.479s-1.559-3.479-3.479-3.479c-1.75 0-3.185 1.297-3.429 2.979H53.396v11.863c-1.417 0.239-2.5 1.464-2.5 2.95C50.896 23.979 52.239 25.323 53.896 25.323z" fill="#703f13" data-fill-palette-color="accent"></path><path d="M44.479 75.489c-1.656 0-3 1.344-3 3 0 1.485 1.083 2.71 2.5 2.95V91.49h-1.925c-0.245-1.683-1.679-2.979-3.429-2.979-1.921 0-3.479 1.558-3.479 3.479 0 1.921 1.558 3.479 3.479 3.479 1.75 0 3.184-1.297 3.429-2.979h2.925V81.439c1.418-0.24 2.5-1.465 2.5-2.95C47.479 76.833 46.136 75.489 44.479 75.489z" fill="#703f13" data-fill-palette-color="accent"></path><path d="M74.208 36.947c0 1.656 1.344 3 3 3 1.485 0 2.71-1.083 2.95-2.5h1.518c0.244 1.683 1.678 2.979 3.428 2.979 1.922 0 3.479-1.558 3.479-3.479s-1.558-3.479-3.479-3.479c-1.75 0-3.184 1.296-3.428 2.979h-1.518c-0.24-1.418-1.465-2.5-2.95-2.5C75.552 33.947 74.208 35.29 74.208 36.947z" fill="#703f13" data-fill-palette-color="accent"></path><path d="M24.542 64.697c0-1.656-1.344-3-3-3-1.486 0-2.71 1.083-2.95 2.5h-2.122c-0.244-1.683-1.679-2.979-3.429-2.979-1.921 0-3.479 1.557-3.479 3.479s1.558 3.479 3.479 3.479c1.75 0 3.185-1.296 3.429-2.979h2.122c0.239 1.418 1.464 2.5 2.95 2.5C23.198 67.697 24.542 66.354 24.542 64.697z" fill="#703f13" data-fill-palette-color="accent"></path><path d="M25.021 11.489c1.75 0 3.184-1.297 3.429-2.979h6.196v10.813h0.5 0.5V7.51H28.45c-0.245-1.682-1.679-2.979-3.429-2.979-1.921 0-3.479 1.558-3.479 3.479S23.1 11.489 25.021 11.489z" fill="#703f13" data-fill-palette-color="accent"></path><path d="M43.979 11.439v7.935c-1.417 0.239-2.5 1.464-2.5 2.95 0 1.656 1.344 3 3 3 1.657 0 3-1.344 3-3 0-1.486-1.082-2.71-2.5-2.95v-7.935c1.683-0.245 2.979-1.679 2.979-3.429 0-1.921-1.558-3.479-3.479-3.479S41 6.089 41 8.01C41 9.76 42.296 11.194 43.979 11.439z" fill="#703f13" data-fill-palette-color="accent"></path><path d="M66.375 13.188c0-1.921-1.559-3.479-3.479-3.479s-3.479 1.558-3.479 3.479c0 1.75 1.297 3.184 2.979 3.429v2.757c-1.417 0.239-2.5 1.464-2.5 2.95 0 1.656 1.344 3 3 3 1.657 0 3-1.344 3-3 0-1.486-1.082-2.71-2.5-2.95v-2.757C65.078 16.372 66.375 14.938 66.375 13.188z" fill="#703f13" data-fill-palette-color="accent"></path><path d="M91.938 31.144V45.78H80.158c-0.24-1.417-1.465-2.5-2.95-2.5-1.656 0-3 1.344-3 3 0 1.657 1.344 3 3 3 1.485 0 2.71-1.082 2.95-2.5h12.779V31.144c1.682-0.244 2.979-1.679 2.979-3.429 0-1.921-1.558-3.479-3.479-3.479-1.922 0-3.479 1.558-3.479 3.479C88.958 29.465 90.255 30.899 91.938 31.144z" fill="#703f13" data-fill-palette-color="accent"></path><path d="M92.063 49.219c-1.75 0-3.185 1.296-3.43 2.979h-4.717v3h-3.758c-0.24-1.417-1.465-2.5-2.95-2.5-1.656 0-3 1.344-3 3 0 1.657 1.344 3 3 3 1.485 0 2.71-1.082 2.95-2.5h4.758v-3h3.717c0.245 1.683 1.68 2.979 3.43 2.979 1.921 0 3.479-1.557 3.479-3.479S93.983 49.219 92.063 49.219z" fill="#703f13" data-fill-palette-color="accent"></path><path d="M54.396 88.561v-7.121c1.418-0.24 2.5-1.465 2.5-2.95 0-1.656-1.343-3-3-3-1.656 0-3 1.344-3 3 0 1.485 1.083 2.71 2.5 2.95v7.121c-1.683 0.245-2.979 1.68-2.979 3.43 0 1.921 1.558 3.479 3.479 3.479s3.479-1.558 3.479-3.479C57.375 90.24 56.078 88.806 54.396 88.561z" fill="#703f13" data-fill-palette-color="accent"></path><path d="M71.729 83.511c-1.75 0-3.184 1.297-3.428 2.979h-4.905v-5.051c1.418-0.24 2.5-1.465 2.5-2.95 0-1.656-1.343-3-3-3-1.656 0-3 1.344-3 3 0 1.485 1.083 2.71 2.5 2.95v6.051h5.905c0.244 1.682 1.678 2.979 3.428 2.979 1.922 0 3.479-1.558 3.479-3.479C75.208 85.068 73.65 83.511 71.729 83.511z" fill="#703f13" data-fill-palette-color="accent"></path><path d="M91.396 68.344c-1.75 0-3.185 1.297-3.429 2.979h-4.092v-7.126h-3.717c-0.24-1.417-1.465-2.5-2.95-2.5-1.656 0-3 1.344-3 3 0 1.657 1.344 3 3 3 1.485 0 2.71-1.082 2.95-2.5h2.717v7.126h5.092c0.244 1.683 1.679 2.979 3.429 2.979 1.921 0 3.479-1.559 3.479-3.479S93.316 68.344 91.396 68.344z" fill="#703f13" data-fill-palette-color="accent"></path><path d="M8.396 31.194c1.75 0 3.185-1.296 3.429-2.979h0.717v9.232h6.05c0.239 1.417 1.464 2.5 2.95 2.5 1.656 0 3-1.344 3-3 0-1.657-1.344-3-3-3-1.486 0-2.71 1.082-2.95 2.5h-5.05v-9.232h-1.717c-0.244-1.683-1.679-2.979-3.429-2.979-1.921 0-3.479 1.558-3.479 3.479S6.475 31.194 8.396 31.194z" fill="#703f13" data-fill-palette-color="accent"></path><path d="M7.063 42.606v3.383h11.508c-0.009 0.097-0.029 0.191-0.029 0.291 0 1.657 1.343 3 3 3 1.656 0 3-1.343 3-3 0-1.656-1.344-3-3-3-1.193 0-2.214 0.701-2.697 1.709H8.063v-2.383c1.682-0.245 2.979-1.679 2.979-3.429 0-1.921-1.558-3.479-3.479-3.479s-3.479 1.558-3.479 3.479C4.084 40.927 5.381 42.361 7.063 42.606z" fill="#703f13" data-fill-palette-color="accent"></path><path d="M10.992 60.239h3.383v-4.333h4.188c0.109 1.558 1.394 2.791 2.979 2.791 1.656 0 3-1.343 3-3 0-1.656-1.344-3-3-3-1.381 0-2.532 0.939-2.881 2.209h-5.286v4.333h-2.383c-0.245-1.683-1.679-2.979-3.429-2.979-1.921 0-3.479 1.559-3.479 3.479s1.558 3.479 3.479 3.479C9.313 63.219 10.747 61.922 10.992 60.239z" fill="#703f13" data-fill-palette-color="accent"></path><path d="M35.646 81.439c1.417-0.24 2.5-1.465 2.5-2.95 0-1.656-1.344-3-3-3-1.657 0-3 1.344-3 3 0 1.485 1.082 2.71 2.5 2.95v3.029h-6.675c-0.244-1.683-1.679-2.979-3.429-2.979-1.921 0-3.479 1.558-3.479 3.479 0 1.921 1.558 3.479 3.479 3.479 1.75 0 3.185-1.297 3.429-2.979h7.675V81.439z" fill="#703f13" data-fill-palette-color="accent"></path></g></svg></g></svg></g></svg></g><defs></defs></svg><rect width="395.52" height="146.6017340911804" fill="none" stroke="none" visibility="hidden"></rect></g></svg></g></svg>