<svg fill="none" height="92" viewBox="0 0 92 92" width="92" xmlns="http://www.w3.org/2000/svg"><path d="m38.1613 45.8981c0-4.2176 3.4171-7.6375 7.6335-7.6375s7.6353 3.4199 7.6353 7.6375-3.4189 7.6375-7.6353 7.6375-7.6335-3.4199-7.6335-7.6375zm-4.1275 0c0 6.4975 5.2654 11.7644 11.761 11.7644s11.761-5.2669 11.761-11.7644-5.2654-11.7644-11.761-11.7644-11.761 5.2669-11.761 11.7644zm21.2391-12.2309c-.0002.5438.1608 1.0754.4626 1.5276.3019.4523.731.8048 1.2331 1.0131s1.0548.263 1.588.1571 1.023-.3675 1.4075-.7519c.3846-.3843.6465-.8741.7528-1.4073.1063-.5333.0521-1.0861-.1558-1.5886-.2078-.5024-.5599-.9319-1.0118-1.2342-.4518-.3023-.9832-.4638-1.5268-.464h-.0011c-.7286.0004-1.4274.29-1.9427.8053-.5153.5152-.8051 1.2141-.8058 1.9429zm-18.7314 30.8797c-2.233-.1017-3.4468-.4738-4.2534-.7881-1.0693-.4164-1.8323-.9124-2.6345-1.7137s-1.2988-1.5638-1.7132-2.6335c-.3145-.8064-.6864-2.0209-.7879-4.2546-.1111-2.415-.1333-3.1404-.1333-9.2587s.024-6.8417.1333-9.2587c.1016-2.2337.4764-3.4458.7879-4.2547.4163-1.0696.9121-1.8328 1.7132-2.6352.8011-.8025 1.5633-1.2992 2.6345-1.7138.8062-.3145 2.0204-.6866 4.2534-.7881 2.4143-.1111 3.1395-.1333 9.2533-.1333s6.8398.0241 9.256.1333c2.2331.1017 3.4448.4765 4.2534.7881 1.0694.4146 1.8324.9124 2.6346 1.7138.8022.8013 1.2969 1.5656 1.7132 2.6352.3144.8065.6864 2.021.7879 4.2547.1111 2.417.1332 3.1404.1332 9.2587s-.0221 6.8417-.1332 9.2587c-.1017 2.2337-.4755 3.4478-.7879 4.2546-.4163 1.0697-.9121 1.8329-1.7132 2.6335s-1.5652 1.2973-2.6346 1.7137c-.8062.3145-2.0203.6866-4.2534.7881-2.4142.1111-3.1395.1333-9.256.1333s-6.8397-.0222-9.2533-.1333zm-.1896-41.4208c-2.4383.111-4.1045.4978-5.5595 1.0641-1.5069.5849-2.7826 1.3695-4.0574 2.6426-1.2747 1.2731-2.0571 2.5512-2.6418 4.0585-.5662 1.4564-.9528 3.1221-1.0639 5.5611-.1128 2.4429-.1387 3.2239-.1387 9.4457s.0259 7.0028.1387 9.4457c.1111 2.4391.4977 4.1047 1.0639 5.5611.5847 1.5064 1.3673 2.7859 2.6418 4.0585 1.2746 1.2725 2.5505 2.0561 4.0574 2.6426 1.4578.5664 3.1212.9531 5.5595 1.0642 2.4434.111 3.2229.1387 9.4429.1387 6.2201 0 7.0008-.0258 9.4429-.1387 2.4385-.1111 4.1036-.4978 5.5595-1.0642 1.506-.5865 2.7826-1.3695 4.0574-2.6426 1.2747-1.2731 2.0555-2.5521 2.6418-4.0585.5662-1.4564.9547-3.1221 1.0639-5.5611.111-2.4447.1369-3.2239.1369-9.4457s-.0259-7.0028-.1369-9.4457c-.1111-2.4391-.4977-4.1056-1.0639-5.5611-.5863-1.5064-1.3691-2.7833-2.6418-4.0585-1.2728-1.2751-2.5514-2.0577-4.0555-2.6426-1.4578-.5663-3.1231-.9549-5.5595-1.0641-2.4422-.1111-3.2229-.1388-9.443-.1388-6.22 0-7.0013.0258-9.4447.1388z" fill="#fff"/></svg>